<?xml version="1.0" encoding="UTF-8" standalone="no"?>
<!-- Created with Inkscape (http://www.inkscape.org/) -->

<svg
   xmlns:dc="http://purl.org/dc/elements/1.1/"
   xmlns:cc="http://creativecommons.org/ns#"
   xmlns:rdf="http://www.w3.org/1999/02/22-rdf-syntax-ns#"
   xmlns:svg="http://www.w3.org/2000/svg"
   xmlns="http://www.w3.org/2000/svg"
   xmlns:sodipodi="http://sodipodi.sourceforge.net/DTD/sodipodi-0.dtd"
   xmlns:inkscape="http://www.inkscape.org/namespaces/inkscape"
   width="600mm"
   height="300mm"
   viewBox="0 0 2125.9843 1062.9921"
   id="svg2"
   version="1.1"
   inkscape:version="0.91 r13725"
   sodipodi:docname="BottomSection - Plans.svg">
  <defs
     id="defs4" />
  <sodipodi:namedview
     id="base"
     pagecolor="#ffffff"
     bordercolor="#666666"
     borderopacity="1.0"
     inkscape:pageopacity="0.0"
     inkscape:pageshadow="2"
     inkscape:zoom="0.98994949"
     inkscape:cx="393.09488"
     inkscape:cy="132.69939"
     inkscape:document-units="mm"
     inkscape:current-layer="layer1"
     showgrid="true"
     inkscape:window-width="1920"
     inkscape:window-height="1005"
     inkscape:window-x="-9"
     inkscape:window-y="-9"
     inkscape:window-maximized="1">
    <inkscape:grid
       type="xygrid"
       id="grid3336" />
  </sodipodi:namedview>
  <metadata
     id="metadata7">
    <rdf:RDF>
      <cc:Work
         rdf:about="">
        <dc:format>image/svg+xml</dc:format>
        <dc:type
           rdf:resource="http://purl.org/dc/dcmitype/StillImage" />
        <dc:title></dc:title>
      </cc:Work>
    </rdf:RDF>
  </metadata>
  <g
     inkscape:groupmode="layer"
     id="layer2"
     inkscape:label="Bottomplate"
     style="display:none"
     sodipodi:insensitive="true">
    <path
       style="fill:none;fill-rule:evenodd;stroke:#000000;stroke-width:1px;stroke-linecap:butt;stroke-linejoin:miter;stroke-opacity:1"
       d="m 0,708.6613 35.433071,0 0,10.62992 35.433071,0 0,-10.62992 35.433068,0 0,10.62992 35.43307,0 0,-10.62992 70.86615,0 0,10.62992 35.43307,0 0,-10.62992 35.43307,0 0,10.62992 35.43307,0 0,-10.62992 35.43307,0"
       id="path4188"
       inkscape:connector-curvature="0" />
    <path
       style="fill:none;fill-rule:evenodd;stroke:#000000;stroke-width:1px;stroke-linecap:butt;stroke-linejoin:miter;stroke-opacity:1"
       d="m 0,708.6613 0,35.43307 10.629921,0 0,35.43307 -10.629921,0 0,35.43307 10.629921,0 0,35.43307 -10.629921,0 0,70.86614 10.629921,0 0,35.43307 -10.629921,0 0,35.43307 10.629921,0 0,35.43304 -10.629921,0 0,35.4331"
       id="path4199"
       inkscape:connector-curvature="0" />
    <path
       style="fill:none;fill-rule:evenodd;stroke:#000000;stroke-width:1px;stroke-linecap:butt;stroke-linejoin:miter;stroke-opacity:1"
       d="m 0,1062.992 35.433071,0 0,-10.63 35.433071,0 0,10.63 35.433068,0 0,-10.63 35.43307,0 0,10.63 70.86615,0 0,-10.63 35.43307,0 0,10.63 35.43307,0 0,-10.63 35.43307,0 0,10.63 35.43307,0"
       id="path4201"
       inkscape:connector-curvature="0" />
    <path
       style="fill:none;fill-rule:evenodd;stroke:#000000;stroke-width:1px;stroke-linecap:butt;stroke-linejoin:miter;stroke-opacity:1"
       d="m 354.33071,1062.992 0,-35.4331 -10.62992,0 0,-35.43304 10.62992,0 0,-35.43307 -10.62992,0 0,-35.43307 10.62992,0 0,-70.86614 -10.62992,0 0,-35.43307 10.62992,0 0,-35.43307 -10.62992,0 0,-35.43307 10.62992,0 0,-35.43307"
       id="path4203"
       inkscape:connector-curvature="0" />
  </g>
  <g
     inkscape:groupmode="layer"
     id="layer7"
     inkscape:label="LockPlate"
     style="display:none"
     sodipodi:insensitive="true">
    <rect
       style="fill:none;fill-opacity:1;stroke:#000000;stroke-width:0.7086615;stroke-linecap:butt;stroke-linejoin:miter;stroke-miterlimit:4;stroke-dasharray:none;stroke-opacity:1"
       id="rect4323"
       width="260.99451"
       height="260.99454"
       x="46.668102"
       y="755.32953" />
    <circle
       style="fill:none;fill-opacity:1;stroke:#000000;stroke-width:0.70866144;stroke-linecap:butt;stroke-linejoin:miter;stroke-miterlimit:4;stroke-dasharray:none;stroke-opacity:1"
       id="path4329"
       cx="177.16536"
       cy="885.82666"
       r="7.0866141" />
  </g>
  <g
     inkscape:groupmode="layer"
     id="layer5"
     inkscape:label="Guide plate"
     style="display:none"
     sodipodi:insensitive="true">
    <rect
       style="fill:none;fill-opacity:1;stroke:#000000;stroke-width:1.27099347;stroke-linecap:butt;stroke-linejoin:miter;stroke-miterlimit:4;stroke-dasharray:none;stroke-opacity:1"
       id="rect4183"
       width="331.7999"
       height="331.79993"
       x="10.911087"
       y="720.28113" />
    <rect
       style="fill:none;fill-opacity:1;stroke:#000000;stroke-width:0.70866144;stroke-linecap:butt;stroke-linejoin:miter;stroke-miterlimit:4;stroke-dasharray:none;stroke-opacity:1"
       id="rect4333"
       width="106.29921"
       height="106.29921"
       x="124.01575"
       y="832.67706" />
  </g>
  <g
     inkscape:groupmode="layer"
     id="layer3"
     inkscape:label="x-axis"
     style="display:none"
     sodipodi:insensitive="true">
    <rect
       transform="translate(0,10.629923)"
       style="fill:none;fill-opacity:1;stroke:#000000;stroke-width:0.7086615;stroke-linecap:butt;stroke-linejoin:miter;stroke-miterlimit:4;stroke-dasharray:none;stroke-opacity:1"
       id="rect3346"
       width="106.29921"
       height="35.433071"
       x="124.01575"
       y="857.48016" />
    <path
       style="fill:none;fill-rule:evenodd;stroke:#000000;stroke-width:1px;stroke-linecap:butt;stroke-linejoin:miter;stroke-opacity:1"
       d="m 88.582677,1009.8424 35.433073,0 0,-35.43307 106.29921,0 0,35.43307 35.43307,0 0,-248.0315 -35.43307,0 0,35.43307 -106.29921,0 0,-35.43307 -35.433073,0 z"
       id="path4320"
       inkscape:connector-curvature="0" />
  </g>
  <g
     inkscape:groupmode="layer"
     id="layer4"
     inkscape:label="y-axis"
     style="display:none"
     sodipodi:insensitive="true">
    <rect
       transform="translate(0,10.629923)"
       style="fill:none;fill-opacity:1;stroke:#000000;stroke-width:0.7086615;stroke-linecap:butt;stroke-linejoin:miter;stroke-miterlimit:4;stroke-dasharray:none;stroke-opacity:1"
       id="rect3344"
       width="35.433071"
       height="106.29921"
       x="159.44882"
       y="822.04712" />
    <path
       style="fill:none;fill-rule:evenodd;stroke:#000000;stroke-width:1px;stroke-linecap:butt;stroke-linejoin:miter;stroke-opacity:1"
       d="m 53.149606,797.24397 0,35.43307 35.433071,0 0,106.29922 -35.433071,0 0,35.43307 248.031494,0 0,-35.43307 -35.43307,0 0,-106.29922 35.43307,0 0,-35.43307 z"
       id="path4318"
       inkscape:connector-curvature="0" />
  </g>
  <g
     inkscape:groupmode="layer"
     id="layer6"
     inkscape:label="Top plate"
     style="display:none"
     sodipodi:insensitive="true">
    <path
       style="display:inline;fill:none;fill-rule:evenodd;stroke:#000000;stroke-width:1px;stroke-linecap:butt;stroke-linejoin:miter;stroke-opacity:1"
       d="m 3.9364123e-4,708.66106 35.43307535877,0 0,10.62992 35.433075,0 0,-10.62992 35.433066,0 0,10.62992 35.43308,0 0,-10.62992 70.86616,0 0,10.62992 35.43307,0 0,-10.62992 35.43307,0 0,10.62992 35.43308,0 0,-10.62992 35.43307,0"
       id="path4188-9"
       inkscape:connector-curvature="0" />
    <path
       style="display:inline;fill:none;fill-rule:evenodd;stroke:#000000;stroke-width:1px;stroke-linecap:butt;stroke-linejoin:miter;stroke-opacity:1"
       d="m 3.9364123e-4,708.66106 0,35.43308 10.62992235877,0 0,35.43307 -10.62992235877,0 0,35.43307 10.62992235877,0 0,35.43308 -10.62992235877,0 0,70.86614 10.62992235877,0 0,35.43308 -10.62992235877,0 0,35.43307 10.62992235877,0 0,35.43305 -10.62992235877,0 0,35.4331"
       id="path4199-9"
       inkscape:connector-curvature="0" />
    <path
       style="display:inline;fill:none;fill-rule:evenodd;stroke:#000000;stroke-width:1px;stroke-linecap:butt;stroke-linejoin:miter;stroke-opacity:1"
       d="m 3.9364123e-4,1062.9918 35.43307535877,0 0,-10.63 35.433075,0 0,10.63 35.433066,0 0,-10.63 35.43308,0 0,10.63 70.86616,0 0,-10.63 35.43307,0 0,10.63 35.43307,0 0,-10.63 35.43308,0 0,10.63 35.43307,0"
       id="path4201-6"
       inkscape:connector-curvature="0" />
    <path
       style="display:inline;fill:none;fill-rule:evenodd;stroke:#000000;stroke-width:1px;stroke-linecap:butt;stroke-linejoin:miter;stroke-opacity:1"
       d="m 354.33114,1062.9918 0,-35.4331 -10.62992,0 0,-35.43305 10.62992,0 0,-35.43307 -10.62992,0 0,-35.43308 10.62992,0 0,-70.86614 -10.62992,0 0,-35.43308 10.62992,0 0,-35.43307 -10.62992,0 0,-35.43307 10.62992,0 0,-35.43308"
       id="path4203-8"
       inkscape:connector-curvature="0" />
    <text
       xml:space="preserve"
       style="font-style:normal;font-weight:normal;font-size:40px;line-height:125%;font-family:sans-serif;letter-spacing:0px;word-spacing:0px;fill:#000000;fill-opacity:1;stroke:none;stroke-width:1px;stroke-linecap:butt;stroke-linejoin:miter;stroke-opacity:1"
       x="17.716536"
       y="1045.2754"
       id="text4314"
       sodipodi:linespacing="125%"><tspan
         sodipodi:role="line"
         id="tspan4316"
         x="17.716536"
         y="1045.2754"
         style="font-style:normal;font-variant:normal;font-weight:normal;font-stretch:normal;font-size:14.17323017px;font-family:'BN Machine';-inkscape-font-specification:'BN Machine'">Boutsman.be</tspan></text>
    <rect
       style="fill:none;fill-opacity:1;stroke:#000000;stroke-width:0.70866144;stroke-linecap:butt;stroke-linejoin:miter;stroke-miterlimit:4;stroke-dasharray:none;stroke-opacity:1"
       id="rect4335"
       width="106.29921"
       height="106.29921"
       x="124.01575"
       y="832.67706" />
  </g>
  <g
     inkscape:label="Help lines"
     inkscape:groupmode="layer"
     id="layer1"
     transform="translate(0,10.629923)"
     style="display:inline"
     sodipodi:insensitive="true">
    <circle
       style="fill:none;fill-opacity:1;stroke:#000000;stroke-width:0.7086615;stroke-linecap:butt;stroke-linejoin:miter;stroke-miterlimit:4;stroke-dasharray:none;stroke-opacity:1"
       id="path3350"
       cx="177.16536"
       cy="875.19672"
       r="17.716536" />
    <path
       style="fill:none;fill-rule:evenodd;stroke:#000000;stroke-width:1px;stroke-linecap:butt;stroke-linejoin:miter;stroke-opacity:1"
       d="m 177.16535,698.03138 0,354.33072 0,0"
       id="path4325"
       inkscape:connector-curvature="0" />
    <path
       style="fill:none;fill-rule:evenodd;stroke:#000000;stroke-width:1px;stroke-linecap:butt;stroke-linejoin:miter;stroke-opacity:1"
       d="m 0,875.19673 354.33071,0"
       id="path4327"
       inkscape:connector-curvature="0" />
  </g>
</svg>
